<svg width="20" height="21" viewBox="0 0 20 21" fill="none" xmlns="http://www.w3.org/2000/svg">
<g clip-path="url(#clip0)">
<path d="M18.0871 14.0361L16.9601 17.8468L14.7476 17.2417L18.0871 14.0361Z" fill="#E4761B" stroke="#E4761B" stroke-width="0.04619"/>
<path d="M14.7476 17.2417L16.8815 14.3179L18.0871 14.0361L14.7476 17.2417Z" fill="#E4761B" stroke="#E4761B" stroke-width="0.04619"/>
<path d="M16.4292 11.1629L18.0874 14.0359L16.8819 14.3176L16.4292 11.1629ZM16.4292 11.1629L17.4962 10.4238L18.0874 14.0359L16.4292 11.1629Z" fill="#F6851B" stroke="#F6851B" stroke-width="0.04619"/>
<path d="M15.0713 8.9927L18.1383 7.73633L17.9859 8.42456L15.0713 8.9927ZM17.8889 9.25136L15.0713 8.9927L17.9859 8.42456L17.8889 9.25136Z" fill="#763D16" stroke="#763D16" stroke-width="0.04619"/>
<path d="M17.8889 9.25136L17.4963 10.4246L15.0713 8.9927L17.8889 9.25136ZM18.5032 8.02733L17.9859 8.42456L18.1383 7.73633L18.5032 8.02733ZM17.8889 9.25136L17.9859 8.42456L18.397 8.76637L17.8889 9.25136Z" fill="#763D16" stroke="#763D16" stroke-width="0.04619"/>
<path d="M12.3696 16.3135L13.1364 16.5583L14.7484 17.2419L12.3696 16.3135Z" fill="#E2761B" stroke="#E2761B" stroke-width="0.04619"/>
<path d="M17.4965 10.4241L17.8891 9.25085L18.2263 9.50952L17.4965 10.4241ZM17.4965 10.4241L14.314 9.37556L15.0715 8.99219L17.4965 10.4241Z" fill="#763D16" stroke="#763D16" stroke-width="0.04619"/>
<path d="M15.829 5.39453L15.0715 8.99274L14.314 9.37611L15.829 5.39453Z" fill="#763D16" stroke="#763D16" stroke-width="0.04619"/>
<path d="M18.1383 7.73637L15.0713 8.99273L15.8288 5.39453L18.1383 7.73637Z" fill="#763D16" stroke="#763D16" stroke-width="0.04619"/>
<path d="M15.8291 5.39393L19.0301 5.02441L18.1386 7.73577L15.8291 5.39393Z" fill="#763D16" stroke="#763D16" stroke-width="0.04619"/>
<path d="M17.4965 10.4245L16.4295 11.1635L14.314 9.37598L17.4965 10.4245Z" fill="#F6851B" stroke="#F6851B" stroke-width="0.04619"/>
<path d="M18.8915 2.43359L19.0301 5.02486L15.8291 5.39438L18.8915 2.43359Z" fill="#763D16" stroke="#763D16" stroke-width="0.04619"/>
<path d="M18.8916 2.43359L12.4943 7.08493L12.4111 3.93015L18.8916 2.43359Z" fill="#E2761B" stroke="#E2761B" stroke-width="0.04619"/>
<path d="M7.65332 3.55078L12.4109 3.92954L12.494 7.08432L7.65332 3.55078Z" fill="#F6851B" stroke="#F6851B" stroke-width="0.04619"/>
<path d="M14.3135 9.37611L12.4937 7.08509L15.8286 5.39453L14.3135 9.37611Z" fill="#763D16" stroke="#763D16" stroke-width="0.04619"/>
<path d="M14.3135 9.37598L16.429 11.1635L13.459 11.4915L14.3135 9.37598Z" fill="#E4761B" stroke="#E4761B" stroke-width="0.04619"/>
<path d="M13.459 11.4915L12.4937 7.08496L14.3135 9.37599L13.459 11.4915Z" fill="#E4761B" stroke="#E4761B" stroke-width="0.04619"/>
<path d="M15.8286 5.39438L12.4937 7.08493L18.891 2.43359L15.8286 5.39438Z" fill="#763D16" stroke="#763D16" stroke-width="0.04619"/>
<path d="M7.69446 17.1677L9.20487 18.7428L7.14941 16.8721L7.69446 17.1677Z" fill="#C0AD9E" stroke="#C0AD9E" stroke-width="0.04619"/>
<path d="M14.7476 17.2422L15.4635 14.5216L16.8815 14.3184L14.7476 17.2422Z" fill="#CD6116" stroke="#CD6116" stroke-width="0.04619"/>
<path d="M1.56982 9.58815L4.18418 6.83984L1.90701 9.2602L1.56982 9.58815Z" fill="#E2761B" stroke="#E2761B" stroke-width="0.04619"/>
<path d="M16.8821 14.3177L15.4641 14.5209L16.4294 11.1629L16.8821 14.3177ZM12.494 7.08432L9.94897 7.00118L7.65332 3.55078L12.494 7.08432Z" fill="#F6851B" stroke="#F6851B" stroke-width="0.04619"/>
<path d="M16.4291 11.1631L15.4638 14.5211L15.3853 12.8814L16.4291 11.1631Z" fill="#E4751F" stroke="#E4751F" stroke-width="0.04619"/>
<path d="M13.459 11.491L16.429 11.1631L15.3851 12.8814L13.459 11.491Z" fill="#CD6116" stroke="#CD6116" stroke-width="0.04619"/>
<path d="M9.94873 7.00195L12.4938 7.08509L13.4592 11.4916L9.94873 7.00195Z" fill="#F6851B" stroke="#F6851B" stroke-width="0.04619"/>
<path d="M9.94898 7.00126L3.08052 0.645508L7.65333 3.55086L9.94898 7.00126ZM7.64872 18.1331L1.68096 19.9807L0.489258 15.4309L7.64872 18.1331Z" fill="#E4761B" stroke="#E4761B" stroke-width="0.04619"/>
<path d="M2.45654 10.7242L4.71062 8.95508L6.59979 9.39388L2.45654 10.7242Z" fill="#763D16" stroke="#763D16" stroke-width="0.04619"/>
<path d="M6.60011 9.39466L4.71094 8.95585L5.7225 4.78027L6.60011 9.39466Z" fill="#763D16" stroke="#763D16" stroke-width="0.04619"/>
<path d="M1.90723 9.25993L4.71096 8.95508L2.45689 10.7242L1.90723 9.25993Z" fill="#763D16" stroke="#763D16" stroke-width="0.04619"/>
<path d="M15.3851 12.8815L14.2211 12.2949L13.459 11.4912L15.3851 12.8815Z" fill="#CD6116" stroke="#CD6116" stroke-width="0.04619"/>
<path d="M1.90711 9.26043L1.7085 8.21191L4.71085 8.95557L1.90711 9.26043Z" fill="#763D16" stroke="#763D16" stroke-width="0.04619"/>
<path d="M13.981 13.616L14.2211 12.2949L15.3851 12.8815L13.981 13.616Z" fill="#233447" stroke="#233447" stroke-width="0.04619"/>
<path d="M15.4637 14.5216L13.981 13.6163L15.3851 12.8818L15.4637 14.5216Z" fill="#F6851B" stroke="#F6851B" stroke-width="0.04619"/>
<path d="M4.71103 8.95585L1.70867 8.21219L1.46387 7.32996L4.71103 8.95585ZM5.72259 4.78027L4.71103 8.95585L1.46387 7.32996L5.72259 4.78027ZM5.72259 4.78027L9.94898 7.00201L6.6002 9.39466L5.72259 4.78027Z" fill="#763D16" stroke="#763D16" stroke-width="0.04619"/>
<path d="M6.6001 9.3946L9.94888 7.00195L11.4408 11.5609L6.6001 9.3946ZM11.4408 11.5609L6.81257 11.4639L6.6001 9.3946L11.4408 11.5609Z" fill="#E4761B" stroke="#E4761B" stroke-width="0.04619"/>
<path d="M2.45654 10.7249L6.59979 9.3946L6.81226 11.4639L2.45654 10.7249ZM13.459 11.4916L11.4405 11.5609L9.94857 7.00195L13.459 11.4916Z" fill="#F6851B" stroke="#F6851B" stroke-width="0.04619"/>
<path d="M14.2211 12.2949L13.9809 13.616L13.459 11.4912L14.2211 12.2949Z" fill="#CD6116" stroke="#CD6116" stroke-width="0.04619"/>
<path d="M3.08057 0.645508L9.94903 7.00126L5.72264 4.77952L3.08057 0.645508Z" fill="#763D16" stroke="#763D16" stroke-width="0.04619"/>
<path d="M0.489258 15.4316L6.28149 15.1914L7.64871 18.1337L0.489258 15.4316Z" fill="#E4761B" stroke="#E4761B" stroke-width="0.04619"/>
<path d="M7.64847 18.1336L6.28125 15.1913L9.12656 15.0527L7.64847 18.1336Z" fill="#CD6116" stroke="#CD6116" stroke-width="0.04619"/>
<path d="M13.9814 13.6161L15.4641 14.5214L16.2816 16.4476L13.9814 13.6161ZM6.81267 11.4636L0.489258 15.4314L2.45695 10.7246L6.81267 11.4636ZM6.28149 15.1912L0.489258 15.4314L6.81267 11.4636L6.28149 15.1912ZM13.4594 11.4914L13.8382 12.8678L12.0091 12.9741L13.4594 11.4914ZM12.0091 12.9741L11.4409 11.5606L13.4594 11.4914L12.0091 12.9741Z" fill="#F6851B" stroke="#F6851B" stroke-width="0.04619"/>
<path d="M9.20504 18.7435L7.64844 18.1338L13.0619 19.0437L9.20504 18.7435Z" fill="#C0AD9E" stroke="#C0AD9E" stroke-width="0.04619"/>
<path d="M2.45667 10.725L1.56982 9.58869L1.90701 9.26074L2.45667 10.725Z" fill="#763D16" stroke="#763D16" stroke-width="0.04619"/>
<path d="M13.6762 18.3694L13.0619 19.0437L7.64844 18.1338L13.6762 18.3694Z" fill="#D7C1B3" stroke="#D7C1B3" stroke-width="0.04619"/>
<path d="M13.9672 16.7156L7.64844 18.1336L9.12652 15.0527L13.9672 16.7156Z" fill="#E4761B" stroke="#E4761B" stroke-width="0.04619"/>
<path d="M7.64844 18.1339L13.9672 16.7158L13.6762 18.3694L7.64844 18.1339Z" fill="#D7C1B3" stroke="#D7C1B3" stroke-width="0.04619"/>
<path d="M1.46371 7.32936L1.25586 3.77734L5.72244 4.77967L1.46371 7.32936ZM1.90714 9.2601L1.29281 8.63654L1.70852 8.21159L1.90714 9.2601Z" fill="#763D16" stroke="#763D16" stroke-width="0.04619"/>
<path d="M10.4062 12.4751L11.4409 11.5605L11.2931 13.7961L10.4062 12.4751Z" fill="#CD6116" stroke="#CD6116" stroke-width="0.04619"/>
<path d="M11.4408 11.5605L10.4062 12.4751L8.90039 13.2557L11.4408 11.5605Z" fill="#CD6116" stroke="#CD6116" stroke-width="0.04619"/>
<path d="M16.2812 16.4477L15.9995 16.2398L13.981 13.6162L16.2812 16.4477Z" fill="#F6851B" stroke="#F6851B" stroke-width="0.04619"/>
<path d="M8.90029 13.256L6.8125 11.4639L11.4407 11.5609L8.90029 13.256Z" fill="#CD6116" stroke="#CD6116" stroke-width="0.04619"/>
<path d="M11.293 13.7961L11.4408 11.5605L12.0089 12.974L11.293 13.7961Z" fill="#E4751F" stroke="#E4751F" stroke-width="0.04619"/>
<path d="M1.08936 7.68015L1.46349 7.3291L1.7083 8.21133L1.08936 7.68015Z" fill="#763D16" stroke="#763D16" stroke-width="0.04619"/>
<path d="M11.293 13.7966L8.90039 13.2562L10.4062 12.4756L11.293 13.7966Z" fill="#233447" stroke="#233447" stroke-width="0.04619"/>
<path d="M5.72244 4.77952L1.25586 3.77719L3.08037 0.645508L5.72244 4.77952Z" fill="#763D16" stroke="#763D16" stroke-width="0.04619"/>
<path d="M13.0619 19.0434L13.316 19.7362L9.20508 18.7432L13.0619 19.0434Z" fill="#C0AD9E" stroke="#C0AD9E" stroke-width="0.04619"/>
<path d="M9.12672 15.0527L8.90039 13.2559L11.293 13.7963L9.12672 15.0527Z" fill="#F6851B" stroke="#F6851B" stroke-width="0.04619"/>
<path d="M6.8125 11.4639L8.90029 13.256L9.12662 15.0528L6.8125 11.4639Z" fill="#E4751F" stroke="#E4751F" stroke-width="0.04619"/>
<path d="M12.0088 12.9743L13.8379 12.868L15.9996 16.2399L12.0088 12.9743ZM6.81244 11.4639L9.12656 15.0528L6.28125 15.1914L6.81244 11.4639Z" fill="#F6851B" stroke="#F6851B" stroke-width="0.04619"/>
<path d="M12.0089 12.9736L14.2815 16.4333L11.293 13.7958L12.0089 12.9736Z" fill="#E4751F" stroke="#E4751F" stroke-width="0.04619"/>
<path d="M11.293 13.7959L14.2815 16.4333L13.9674 16.7151L11.293 13.7959Z" fill="#F6851B" stroke="#F6851B" stroke-width="0.04619"/>
<path d="M13.9672 16.715L9.12646 15.0522L11.2928 13.7958L13.9672 16.715ZM15.9995 16.2393L14.2813 16.4333L12.0087 12.9736L15.9995 16.2393Z" fill="#F6851B" stroke="#F6851B" stroke-width="0.04619"/>
<path d="M16.4524 17.8652L15.7133 19.3479L13.3161 19.7359L16.4524 17.8652ZM13.3161 19.7359L13.062 19.0431L13.6763 18.3687L13.3161 19.7359Z" fill="#C0AD9E" stroke="#C0AD9E" stroke-width="0.04619"/>
<path d="M13.6767 18.3687L14.1294 18.1886L13.3164 19.7359L13.6767 18.3687ZM13.3164 19.7359L14.1294 18.1886L16.4527 17.8652L13.3164 19.7359Z" fill="#C0AD9E" stroke="#C0AD9E" stroke-width="0.04619"/>
<path d="M15.9997 16.2393L16.5678 16.5857L14.8403 16.7935L15.9997 16.2393Z" fill="#161616" stroke="#161616" stroke-width="0.04619"/>
<path d="M14.8401 16.7935L14.2812 16.4333L15.9995 16.2393L14.8401 16.7935ZM14.6415 17.0661L16.7432 16.812L16.4522 17.8651L14.6415 17.0661Z" fill="#161616" stroke="#161616" stroke-width="0.04619"/>
<path d="M16.4528 17.8655L14.1294 18.1888L14.6421 17.0664L16.4528 17.8655ZM14.1294 18.1888L13.6768 18.369L13.9678 16.7154L14.1294 18.1888ZM13.9678 16.7154L14.2818 16.4336L14.8407 16.7939L13.9678 16.7154ZM16.5683 16.586L16.7438 16.8124L14.6421 17.0664L16.5683 16.586Z" fill="#161616" stroke="#161616" stroke-width="0.04619"/>
<path d="M14.6417 17.0663L14.8403 16.7938L16.5678 16.5859L14.6417 17.0663ZM13.9673 16.7153L14.6417 17.0663L14.129 18.1887L13.9673 16.7153Z" fill="#161616" stroke="#161616" stroke-width="0.04619"/>
<path d="M14.8403 16.7943L14.6417 17.0669L13.9673 16.7158L14.8403 16.7943Z" fill="#161616" stroke="#161616" stroke-width="0.04619"/>
</g>
<defs>
<clipPath id="clip0">
<rect width="18.6637" height="19.4091" fill="white" transform="translate(0.399902 0.599609)"/>
</clipPath>
</defs>
</svg>
