<svg width="247" height="247" viewBox="0 0 247 247" fill="none" xmlns="http://www.w3.org/2000/svg">
<path d="M237.1 101L146.8 10.7C133.7 -2.4 112.5 -2.4 99.5 10.7L10 100.5L19 123.8L221.9 124.9C221.8 116.4 237.1 101 237.1 101Z" fill="#B1E1FF"/>
<path d="M147 191C141 184.7 132.5 180.7 123.1 180.7C113.7 180.7 105.2 184.7 99.2001 191H54.1001L99.4001 236.4C103.4 240.4 108.1 243.1 113.1 244.7C113.2 244.7 113.3 244.8 113.4 244.8C113.6 244.9 113.8 244.9 114 245C116.9 245.8 120 246.3 123.1 246.3C126.3 246.3 129.3 245.8 132.2 245C132.4 244.9 132.6 244.9 132.8 244.8C132.9 244.8 133 244.7 133.1 244.7C138.1 243.1 142.8 240.4 146.8 236.4L190.8 192.5L191.5 190.9L147 191Z" fill="#2B56FE"/>
<path d="M11.6001 135.3C13.2001 139.5 9.1001 145.8 9.1001 145.8C9.1001 145.8 49.8001 186.2 53.4001 190.2C59.4001 197.1 68.3001 201.5 78.2001 201.5C87.5001 201.5 96.0001 197.6 101.9 191.3C107.4 185.5 115.2 182.5 123.2 182.5C131.2 182.5 139 185.5 144.5 191.3C150.5 197.6 158.9 201.5 168.2 201.5C177 201.5 185 198.1 190.9 192.5C195.6 188.1 236.5 147.1 236.5 147.1C239.9 143.7 241.9 140 243.6 135.9L11.6001 135.3Z" fill="#3B82FF"/>
<path d="M246.2 121.5C245.2 105.4 232.2 92.2 216.2 90.9C206 90.1 196.7 93.9 190.2 100.5C184.5 106.3 176.9 109.8 168.8 109.8H168.2C160.1 109.8 152.5 106.3 146.8 100.5C140.8 94.4 132.5 90.7 123.2 90.8C114.2 90.9 106 94.6 100.1 100.5C94.4001 106.3 86.8001 109.8 78.7001 109.8H78.0001C69.9001 109.8 62.3001 106.3 56.6001 100.5C50.1001 93.9 40.8001 90 30.6001 90.9C14.5001 92.2 1.6001 105.4 0.600103 121.5C-0.599897 140.6 14.5001 156.5 33.3001 156.5C42.6001 156.5 51.1001 152.6 57.0001 146.3C62.5001 140.5 70.3001 137.5 78.3001 137.5C86.1001 137.5 93.7001 140.4 99.2001 146C105.2 152.5 113.8 156.6 123.3 156.6C132.6 156.6 141.1 152.7 147 146.4C152.5 140.6 160.3 137.6 168.3 137.6C176.3 137.6 184.1 140.6 189.6 146.4C195.6 152.7 204 156.6 213.3 156.6C232.3 156.5 247.4 140.6 246.2 121.5Z" fill="#5FADFF"/>
</svg>
